<?xml version="1.0" encoding="utf-8"?>
<!-- Generator: Adobe Illustrator 27.4.0, SVG Export Plug-In . SVG Version: 6.00 Build 0)  -->
<svg version="1.1" id="Calque_1" xmlns="http://www.w3.org/2000/svg" xmlns:xlink="http://www.w3.org/1999/xlink" x="0px" y="0px"
	 viewBox="0 0 173 55.34" style="enable-background:new 0 0 173 55.34;" xml:space="preserve">
<style type="text/css">
	.st0{clip-path:url(#SVGID_00000036955663992763459070000012975051074959583669_);fill:#FFFFFF;}
	.st1{fill:#231F20;}
	.st2{fill:#ED1C24;}
	.st3{fill:#FFFFFF;}
</style>
<g>
	<defs>
		<rect id="SVGID_1_" y="0.02" width="173" height="55.32"/>
	</defs>
	<clipPath id="SVGID_00000080916665339674526330000011912333492436611464_">
		<use xlink:href="#SVGID_1_"  style="overflow:visible;"/>
	</clipPath>
	
		<rect y="0.02" style="clip-path:url(#SVGID_00000080916665339674526330000011912333492436611464_);fill:#FFFFFF;" width="173" height="55.32"/>
</g>
<path class="st1" d="M38.47,15.13c0.31,0.2,0.67,0.31,1.15,0.31c0.65,0,1.18-0.33,1.18-1.07c0-1.03-2.4-1.16-2.4-2.53
	c0-0.84,0.74-1.37,1.66-1.37c0.26,0,0.67,0.04,1.03,0.17l-0.08,0.47c-0.23-0.13-0.6-0.19-0.95-0.19c-0.54,0-1.13,0.22-1.13,0.9
	c0,1.05,2.4,1.06,2.4,2.59c0,1.06-0.91,1.48-1.72,1.48c-0.51,0-0.91-0.1-1.19-0.22L38.47,15.13"/>
<path class="st1" d="M45.39,12.48c-0.26-0.11-0.56-0.19-0.82-0.19c-0.92,0-1.44,0.67-1.44,1.6c0,0.87,0.52,1.6,1.39,1.6
	c0.3,0,0.58-0.07,0.86-0.17l0.04,0.44c-0.32,0.11-0.62,0.13-0.98,0.13c-1.23,0-1.83-0.94-1.83-2c0-1.18,0.76-2,1.89-2
	c0.46,0,0.79,0.1,0.92,0.15L45.39,12.48"/>
<path class="st1" d="M46.81,10.17h0.47v2.45h0.01c0.2-0.42,0.63-0.74,1.19-0.74c1.03,0,1.31,0.68,1.31,1.63v2.29h-0.47v-2.28
	c0-0.66-0.13-1.23-0.91-1.23c-0.84,0-1.13,0.8-1.13,1.46v2.05h-0.47V10.17"/>
<polyline class="st1" points="55.5,15.79 54.93,15.79 53.89,12.48 53.88,12.48 52.83,15.79 52.26,15.79 51.03,11.97 51.55,11.97 
	52.56,15.28 52.57,15.28 53.63,11.97 54.21,11.97 55.22,15.28 55.23,15.28 56.29,11.97 56.76,11.97 55.5,15.79 "/>
<path class="st1" d="M60.56,15.67c-0.33,0.14-0.76,0.21-1.11,0.21c-1.27,0-1.74-0.85-1.74-2c0-1.17,0.65-2,1.61-2
	c1.08,0,1.52,0.87,1.52,1.9v0.24h-2.62c0,0.81,0.43,1.46,1.26,1.46c0.35,0,0.85-0.14,1.07-0.29V15.67 M60.33,13.61
	c0-0.67-0.27-1.33-0.97-1.33c-0.7,0-1.13,0.7-1.13,1.33H60.33z"/>
<path class="st1" d="M62.81,10.95h-0.47v-0.63h0.47V10.95 M62.33,11.97h0.47v3.83h-0.47V11.97z"/>
<polyline class="st1" points="64.23,15.4 66.54,12.37 64.32,12.37 64.32,11.97 67.08,11.97 67.08,12.37 64.78,15.39 67.08,15.39 
	67.08,15.79 64.23,15.79 64.23,15.4 "/>
<path class="st1" d="M71.07,15.67c-0.33,0.14-0.76,0.21-1.11,0.21c-1.27,0-1.74-0.85-1.74-2c0-1.17,0.65-2,1.61-2
	c1.08,0,1.52,0.87,1.52,1.9v0.24h-2.62c0,0.81,0.44,1.46,1.26,1.46c0.35,0,0.85-0.14,1.07-0.29V15.67 M70.83,13.61
	c0-0.67-0.27-1.33-0.98-1.33c-0.7,0-1.13,0.7-1.13,1.33H70.83z"/>
<path class="st1" d="M72.84,12.82c0-0.42,0-0.58-0.03-0.86h0.47v0.74h0.01c0.17-0.43,0.5-0.83,0.98-0.83c0.11,0,0.25,0.02,0.33,0.04
	v0.5c-0.1-0.03-0.22-0.05-0.35-0.05c-0.75,0-0.95,0.84-0.95,1.53v1.89h-0.47V12.82"/>
<path class="st1" d="M76.39,10.95h-0.47v-0.63h0.47V10.95 M75.92,11.97h0.47v3.83h-0.47V11.97z"/>
<path class="st1" d="M77.88,15.24c0.29,0.14,0.63,0.24,1,0.24c0.45,0,0.85-0.25,0.85-0.68c0-0.91-1.84-0.76-1.84-1.88
	c0-0.76,0.62-1.04,1.25-1.04c0.2,0,0.61,0.04,0.94,0.17l-0.05,0.41c-0.25-0.11-0.58-0.18-0.85-0.18c-0.49,0-0.83,0.15-0.83,0.64
	c0,0.71,1.88,0.62,1.88,1.88c0,0.81-0.76,1.09-1.33,1.09c-0.37,0-0.74-0.05-1.07-0.18L77.88,15.24"/>
<path class="st1" d="M84.17,12.48c-0.25-0.11-0.56-0.19-0.82-0.19c-0.92,0-1.44,0.67-1.44,1.6c0,0.87,0.53,1.6,1.39,1.6
	c0.3,0,0.58-0.07,0.86-0.17l0.04,0.44c-0.32,0.11-0.62,0.13-0.98,0.13c-1.23,0-1.83-0.94-1.83-2c0-1.18,0.76-2,1.89-2
	c0.46,0,0.79,0.1,0.92,0.15L84.17,12.48"/>
<path class="st1" d="M85.59,10.17h0.47v2.45h0.01c0.2-0.42,0.63-0.74,1.19-0.74c1.03,0,1.31,0.68,1.31,1.63v2.29h-0.47v-2.28
	c0-0.66-0.13-1.23-0.91-1.23c-0.84,0-1.13,0.8-1.13,1.46v2.05h-0.47V10.17"/>
<path class="st1" d="M92.92,15.67c-0.33,0.14-0.76,0.21-1.11,0.21c-1.27,0-1.74-0.85-1.74-2c0-1.17,0.65-2,1.61-2
	c1.08,0,1.52,0.87,1.52,1.9v0.24h-2.62c0,0.81,0.44,1.46,1.26,1.46c0.35,0,0.85-0.14,1.07-0.29V15.67 M92.68,13.61
	c0-0.67-0.27-1.33-0.97-1.33c-0.7,0-1.13,0.7-1.13,1.33H92.68z"/>
<polyline class="st1" points="97.19,10.56 99.75,10.56 99.75,11.01 97.7,11.01 97.7,12.87 99.65,12.87 99.65,13.33 97.7,13.33 
	97.7,15.34 99.84,15.34 99.84,15.79 97.19,15.79 97.19,10.56 "/>
<path class="st1" d="M101.94,10.95h-0.47v-0.63h0.47V10.95 M101.47,11.97h0.47v3.83h-0.47V11.97z"/>
<path class="st1" d="M106.75,15.79h-0.47v-0.61h-0.01c-0.26,0.49-0.65,0.7-1.19,0.7c-1.05,0-1.57-0.87-1.57-2c0-1.16,0.45-2,1.57-2
	c0.75,0,1.13,0.55,1.19,0.74h0.01v-2.45h0.47V15.79 M105.15,15.48c0.84,0,1.13-0.9,1.13-1.6c0-0.7-0.29-1.6-1.13-1.6
	c-0.9,0-1.13,0.85-1.13,1.6S104.25,15.48,105.15,15.48z"/>
<path class="st1" d="M111.51,15.48c0,1.06-0.48,1.93-1.79,1.93c-0.5,0-0.96-0.14-1.15-0.2l0.04-0.47c0.29,0.15,0.71,0.27,1.13,0.27
	c1.22,0,1.32-0.88,1.32-1.97h-0.01c-0.25,0.56-0.67,0.75-1.16,0.75c-1.22,0-1.61-1.06-1.61-1.91c0-1.16,0.45-2,1.58-2
	c0.51,0,0.84,0.07,1.19,0.53h0.01v-0.44h0.47V15.48 M109.88,15.39c0.86,0,1.16-0.81,1.16-1.51c0-0.92-0.27-1.6-1.13-1.6
	c-0.9,0-1.13,0.85-1.13,1.6C108.77,14.63,109.07,15.39,109.88,15.39z"/>
<path class="st1" d="M115.8,15.67c-0.33,0.14-0.76,0.21-1.11,0.21c-1.27,0-1.74-0.85-1.74-2c0-1.17,0.65-2,1.61-2
	c1.08,0,1.52,0.87,1.52,1.9v0.24h-2.62c0,0.81,0.43,1.46,1.26,1.46c0.35,0,0.85-0.14,1.07-0.29V15.67 M115.57,13.61
	c0-0.67-0.27-1.33-0.97-1.33c-0.7,0-1.13,0.7-1.13,1.33H115.57z"/>
<path class="st1" d="M117.57,12.87c0-0.29,0-0.59-0.03-0.9H118v0.68h0.02c0.16-0.34,0.44-0.77,1.24-0.77c0.95,0,1.31,0.63,1.31,1.47
	v2.45h-0.47v-2.33c0-0.72-0.25-1.19-0.91-1.19c-0.86,0-1.13,0.76-1.13,1.4v2.12h-0.47V12.87"/>
<path class="st1" d="M123.82,11.88c1.24,0,1.79,0.96,1.79,2c0,1.04-0.55,2-1.79,2c-1.24,0-1.78-0.96-1.78-2
	C122.04,12.84,122.59,11.88,123.82,11.88 M123.82,15.48c0.83,0,1.27-0.71,1.27-1.6c0-0.88-0.44-1.6-1.27-1.6
	c-0.82,0-1.27,0.71-1.27,1.6C122.56,14.77,123,15.48,123.82,15.48z"/>
<path class="st1" d="M126.8,15.24c0.29,0.14,0.63,0.24,1,0.24c0.45,0,0.85-0.25,0.85-0.68c0-0.91-1.84-0.76-1.84-1.88
	c0-0.76,0.61-1.04,1.25-1.04c0.2,0,0.61,0.04,0.94,0.17l-0.04,0.41c-0.25-0.11-0.58-0.18-0.85-0.18c-0.49,0-0.83,0.15-0.83,0.64
	c0,0.71,1.88,0.62,1.88,1.88c0,0.81-0.76,1.09-1.34,1.09c-0.37,0-0.74-0.05-1.07-0.18L126.8,15.24"/>
<path class="st1" d="M130.3,15.24c0.29,0.14,0.63,0.24,1,0.24c0.45,0,0.85-0.25,0.85-0.68c0-0.91-1.84-0.76-1.84-1.88
	c0-0.76,0.62-1.04,1.25-1.04c0.2,0,0.61,0.04,0.94,0.17l-0.04,0.41c-0.25-0.11-0.58-0.18-0.85-0.18c-0.49,0-0.82,0.15-0.82,0.64
	c0,0.71,1.88,0.62,1.88,1.88c0,0.81-0.76,1.09-1.34,1.09c-0.37,0-0.74-0.05-1.07-0.18L130.3,15.24"/>
<path class="st1" d="M136.66,15.67c-0.33,0.14-0.76,0.21-1.11,0.21c-1.27,0-1.74-0.85-1.74-2c0-1.17,0.64-2,1.61-2
	c1.08,0,1.52,0.87,1.52,1.9v0.24h-2.62c0,0.81,0.44,1.46,1.26,1.46c0.35,0,0.85-0.14,1.07-0.29V15.67 M136.43,13.61
	c0-0.67-0.27-1.33-0.98-1.33c-0.7,0-1.13,0.7-1.13,1.33H136.43z"/>
<path class="st1" d="M138.43,12.87c0-0.29,0-0.59-0.03-0.9h0.46v0.68h0.01c0.16-0.34,0.44-0.77,1.24-0.77
	c0.95,0,1.31,0.63,1.31,1.47v2.45h-0.47v-2.33c0-0.72-0.26-1.19-0.91-1.19c-0.86,0-1.13,0.76-1.13,1.4v2.12h-0.47V12.87"/>
<path class="st1" d="M142.9,15.24c0.29,0.14,0.63,0.24,1,0.24c0.45,0,0.85-0.25,0.85-0.68c0-0.91-1.84-0.76-1.84-1.88
	c0-0.76,0.62-1.04,1.24-1.04c0.2,0,0.61,0.04,0.95,0.17l-0.05,0.41c-0.25-0.11-0.58-0.18-0.85-0.18c-0.49,0-0.83,0.15-0.83,0.64
	c0,0.71,1.88,0.62,1.88,1.88c0,0.81-0.76,1.09-1.34,1.09c-0.37,0-0.74-0.05-1.07-0.18L142.9,15.24"/>
<path class="st1" d="M149.19,12.48c-0.26-0.11-0.56-0.19-0.82-0.19c-0.92,0-1.44,0.67-1.44,1.6c0,0.87,0.52,1.6,1.39,1.6
	c0.3,0,0.58-0.07,0.86-0.17l0.05,0.44c-0.32,0.11-0.62,0.13-0.98,0.13c-1.23,0-1.83-0.94-1.83-2c0-1.18,0.76-2,1.89-2
	c0.46,0,0.79,0.1,0.92,0.15L149.19,12.48"/>
<path class="st1" d="M150.61,10.17h0.47v2.45h0.01c0.2-0.42,0.63-0.74,1.19-0.74c1.03,0,1.31,0.68,1.31,1.63v2.29h-0.47v-2.28
	c0-0.66-0.13-1.23-0.91-1.23c-0.84,0-1.13,0.8-1.13,1.46v2.05h-0.47V10.17"/>
<path class="st1" d="M157.57,15.18h-0.01c-0.21,0.46-0.74,0.71-1.22,0.71c-1.09,0-1.26-0.74-1.26-1.08c0-1.28,1.37-1.34,2.36-1.34
	h0.09v-0.19c0-0.65-0.23-0.98-0.87-0.98c-0.4,0-0.77,0.09-1.13,0.32v-0.46c0.29-0.14,0.79-0.26,1.13-0.26
	c0.94,0,1.34,0.43,1.34,1.42v1.69c0,0.31,0,0.54,0.04,0.8h-0.47V15.18 M157.52,13.87h-0.13c-0.82,0-1.79,0.08-1.79,0.92
	c0,0.5,0.36,0.69,0.8,0.69c1.11,0,1.13-0.97,1.13-1.38V13.87z"/>
<path class="st1" d="M160.03,12.37h-0.77v-0.41h0.77v-0.28c0-0.8,0.03-1.61,1.01-1.61c0.15,0,0.35,0.02,0.44,0.08l-0.03,0.41
	c-0.1-0.05-0.24-0.08-0.38-0.08c-0.65,0-0.58,0.7-0.58,1.15v0.33h0.86v0.41h-0.86v3.42h-0.47V12.37"/>
<path class="st1" d="M164.44,12.37h-0.87v2.48c0,0.35,0.13,0.63,0.51,0.63c0.18,0,0.3-0.04,0.43-0.09l0.03,0.39
	c-0.11,0.04-0.34,0.1-0.58,0.1c-0.84,0-0.87-0.58-0.87-1.28v-2.24h-0.75v-0.41h0.75v-0.92l0.47-0.17v1.09h0.87V12.37"/>
<path class="st1" d="M42.15,21.49c-0.33-0.17-0.8-0.22-1.17-0.22c-1.36,0-2.12,0.96-2.12,2.26c0,1.32,0.74,2.26,2.12,2.26
	c0.34,0,0.87-0.05,1.17-0.23l0.03,0.45c-0.28,0.17-0.87,0.23-1.2,0.23c-1.65,0-2.64-1.09-2.64-2.71c0-1.59,1.02-2.71,2.64-2.71
	c0.31,0,0.93,0.05,1.2,0.19L42.15,21.49"/>
<path class="st1" d="M45.4,22.23c1.24,0,1.79,0.96,1.79,2s-0.55,2-1.79,2c-1.24,0-1.78-0.96-1.78-2S44.16,22.23,45.4,22.23
	 M45.4,25.83c0.83,0,1.27-0.71,1.27-1.6c0-0.89-0.44-1.6-1.27-1.6c-0.83,0-1.27,0.71-1.27,1.6C44.13,25.12,44.57,25.83,45.4,25.83z"
	/>
<path class="st1" d="M48.66,23.22c0-0.29,0-0.59-0.03-0.9h0.46V23h0.02c0.16-0.35,0.44-0.77,1.24-0.77c0.95,0,1.31,0.63,1.31,1.47
	v2.45h-0.47v-2.33c0-0.72-0.26-1.18-0.91-1.18c-0.86,0-1.13,0.76-1.13,1.39v2.12h-0.47V23.22"/>
<path class="st1" d="M53.74,22.72h-0.77v-0.41h0.77v-0.28c0-0.8,0.03-1.61,1.01-1.61c0.15,0,0.35,0.02,0.44,0.08l-0.03,0.41
	c-0.1-0.05-0.24-0.08-0.38-0.08c-0.65,0-0.58,0.7-0.58,1.16v0.33h0.86v0.41h-0.86v3.42h-0.47V22.72"/>
<path class="st1" d="M59.07,26.02c-0.33,0.14-0.76,0.21-1.11,0.21c-1.27,0-1.74-0.86-1.74-2c0-1.17,0.65-2,1.61-2
	c1.08,0,1.52,0.87,1.52,1.9v0.24h-2.62c0,0.81,0.44,1.46,1.26,1.46c0.35,0,0.85-0.14,1.07-0.29V26.02 M58.84,23.96
	c0-0.67-0.27-1.33-0.98-1.33c-0.7,0-1.13,0.7-1.13,1.33H58.84z M58.05,20.84h0.59l-0.95,1.08h-0.35L58.05,20.84z"/>
<path class="st1" d="M63.87,26.14H63.4v-0.61h-0.01c-0.26,0.49-0.65,0.7-1.19,0.7c-1.05,0-1.58-0.87-1.58-2c0-1.16,0.45-2,1.58-2
	c0.75,0,1.13,0.55,1.19,0.74h0.01v-2.45h0.47V26.14 M62.26,25.83c0.84,0,1.13-0.9,1.13-1.6s-0.29-1.6-1.13-1.6
	c-0.9,0-1.13,0.85-1.13,1.6S61.36,25.83,62.26,25.83z"/>
<path class="st1" d="M68.16,26.02c-0.33,0.14-0.76,0.21-1.11,0.21c-1.27,0-1.74-0.86-1.74-2c0-1.17,0.65-2,1.61-2
	c1.08,0,1.52,0.87,1.52,1.9v0.24h-2.62c0,0.81,0.43,1.46,1.26,1.46c0.35,0,0.85-0.14,1.07-0.29V26.02 M67.93,23.96
	c0-0.67-0.27-1.33-0.97-1.33c-0.7,0-1.13,0.7-1.13,1.33H67.93z M67.14,20.84h0.59l-0.95,1.08h-0.35L67.14,20.84z"/>
<path class="st1" d="M69.93,23.17c0-0.42,0-0.58-0.03-0.86h0.47v0.74h0.01c0.17-0.43,0.5-0.83,0.98-0.83c0.11,0,0.25,0.02,0.33,0.05
	v0.49c-0.1-0.03-0.23-0.04-0.35-0.04c-0.75,0-0.95,0.84-0.95,1.53v1.89h-0.47V23.17"/>
<path class="st1" d="M75.22,25.53H75.2c-0.21,0.46-0.74,0.7-1.22,0.7c-1.09,0-1.26-0.74-1.26-1.08c0-1.28,1.37-1.34,2.36-1.34h0.09
	v-0.19c0-0.65-0.23-0.98-0.87-0.98c-0.4,0-0.77,0.09-1.13,0.31v-0.46c0.29-0.14,0.79-0.26,1.13-0.26c0.94,0,1.34,0.43,1.34,1.43
	v1.69c0,0.31,0,0.54,0.04,0.8h-0.47V25.53 M75.17,24.22h-0.13c-0.82,0-1.79,0.08-1.79,0.92c0,0.5,0.36,0.69,0.8,0.69
	c1.11,0,1.13-0.97,1.13-1.38V24.22z"/>
<path class="st1" d="M79,22.72h-0.87v2.48c0,0.34,0.13,0.63,0.51,0.63c0.18,0,0.3-0.04,0.44-0.09l0.03,0.39
	c-0.11,0.05-0.35,0.11-0.58,0.11c-0.84,0-0.87-0.58-0.87-1.28v-2.24h-0.75v-0.41h0.75v-0.92l0.47-0.16v1.09H79V22.72"/>
<path class="st1" d="M80.91,21.3h-0.47v-0.63h0.47V21.3 M80.44,22.32h0.47v3.83h-0.47V22.32z"/>
<path class="st1" d="M84.18,22.23c1.24,0,1.79,0.96,1.79,2s-0.55,2-1.79,2s-1.79-0.96-1.79-2S82.94,22.23,84.18,22.23 M84.18,25.83
	c0.83,0,1.27-0.71,1.27-1.6c0-0.89-0.44-1.6-1.27-1.6c-0.83,0-1.27,0.71-1.27,1.6C82.92,25.12,83.36,25.83,84.18,25.83z"/>
<path class="st1" d="M87.45,23.22c0-0.29,0-0.59-0.03-0.9h0.46V23h0.01c0.16-0.35,0.44-0.77,1.24-0.77c0.94,0,1.31,0.63,1.31,1.47
	v2.45h-0.47v-2.33c0-0.72-0.25-1.18-0.91-1.18c-0.86,0-1.13,0.76-1.13,1.39v2.12h-0.47V23.22"/>
<path class="st1" d="M94.51,25.59c0.29,0.14,0.63,0.24,1,0.24c0.45,0,0.85-0.25,0.85-0.68c0-0.91-1.84-0.76-1.84-1.87
	c0-0.76,0.61-1.04,1.25-1.04c0.2,0,0.61,0.05,0.95,0.17l-0.04,0.41c-0.25-0.11-0.58-0.18-0.85-0.18c-0.49,0-0.83,0.15-0.83,0.64
	c0,0.71,1.88,0.62,1.88,1.87c0,0.81-0.76,1.09-1.34,1.09c-0.37,0-0.74-0.05-1.07-0.18L94.51,25.59"/>
<path class="st1" d="M101.29,25.24c0,0.29,0,0.59,0.03,0.9h-0.46v-0.68h-0.01c-0.16,0.35-0.44,0.77-1.24,0.77
	c-0.94,0-1.31-0.63-1.31-1.47v-2.45h0.47v2.33c0,0.72,0.26,1.19,0.91,1.19c0.86,0,1.13-0.76,1.13-1.4v-2.12h0.47V25.24"/>
<path class="st1" d="M103.54,21.3h-0.47v-0.63h0.47V21.3 M103.06,22.32h0.47v3.83h-0.47V22.32z"/>
<path class="st1" d="M105.02,25.59c0.28,0.14,0.63,0.24,1,0.24c0.45,0,0.85-0.25,0.85-0.68c0-0.91-1.84-0.76-1.84-1.87
	c0-0.76,0.62-1.04,1.25-1.04c0.2,0,0.61,0.05,0.94,0.17l-0.04,0.41c-0.25-0.11-0.59-0.18-0.85-0.18c-0.49,0-0.83,0.15-0.83,0.64
	c0,0.71,1.88,0.62,1.88,1.87c0,0.81-0.76,1.09-1.33,1.09c-0.37,0-0.74-0.05-1.07-0.18L105.02,25.59"/>
<path class="st1" d="M108.53,25.59c0.29,0.14,0.63,0.24,1,0.24c0.45,0,0.85-0.25,0.85-0.68c0-0.91-1.84-0.76-1.84-1.87
	c0-0.76,0.62-1.04,1.25-1.04c0.2,0,0.61,0.05,0.95,0.17l-0.04,0.41c-0.25-0.11-0.58-0.18-0.85-0.18c-0.49,0-0.83,0.15-0.83,0.64
	c0,0.71,1.88,0.62,1.88,1.87c0,0.81-0.76,1.09-1.34,1.09c-0.37,0-0.74-0.05-1.07-0.18L108.53,25.59"/>
<path class="st1" d="M114.89,26.02c-0.33,0.14-0.76,0.21-1.11,0.21c-1.27,0-1.74-0.86-1.74-2c0-1.17,0.64-2,1.61-2
	c1.08,0,1.52,0.87,1.52,1.9v0.24h-2.62c0,0.81,0.44,1.46,1.26,1.46c0.35,0,0.85-0.14,1.07-0.29V26.02 M114.65,23.96
	c0-0.67-0.27-1.33-0.97-1.33c-0.7,0-1.13,0.7-1.13,1.33H114.65z"/>
<path class="st1" d="M42.15,31.84c-0.33-0.17-0.8-0.23-1.17-0.23c-1.36,0-2.12,0.96-2.12,2.26c0,1.32,0.74,2.26,2.12,2.26
	c0.34,0,0.87-0.05,1.17-0.23l0.03,0.45c-0.28,0.17-0.87,0.22-1.2,0.22c-1.65,0-2.64-1.09-2.64-2.71c0-1.59,1.02-2.71,2.64-2.71
	c0.31,0,0.93,0.05,1.2,0.19L42.15,31.84"/>
<path class="st1" d="M45.4,32.58c1.24,0,1.79,0.96,1.79,2c0,1.04-0.55,2-1.79,2c-1.24,0-1.78-0.96-1.78-2
	C43.61,33.54,44.16,32.58,45.4,32.58 M45.4,36.18c0.83,0,1.27-0.71,1.27-1.6c0-0.89-0.44-1.6-1.27-1.6c-0.83,0-1.27,0.71-1.27,1.6
	C44.13,35.47,44.57,36.18,45.4,36.18z"/>
<path class="st1" d="M48.66,33.57c0-0.29,0-0.59-0.03-0.9h0.46v0.68h0.02c0.16-0.35,0.44-0.77,1.24-0.77c0.95,0,1.31,0.63,1.31,1.47
	v2.45h-0.47v-2.33c0-0.72-0.26-1.19-0.91-1.19c-0.86,0-1.13,0.76-1.13,1.4v2.12h-0.47V33.57"/>
<path class="st1" d="M53.74,33.07h-0.77v-0.41h0.77v-0.28c0-0.8,0.03-1.61,1.01-1.61c0.15,0,0.35,0.02,0.44,0.08l-0.03,0.41
	c-0.1-0.05-0.24-0.08-0.38-0.08c-0.65,0-0.58,0.7-0.58,1.16v0.33h0.86v0.41h-0.86v3.42h-0.47V33.07"/>
<path class="st1" d="M59.07,36.37c-0.33,0.13-0.76,0.21-1.11,0.21c-1.27,0-1.74-0.86-1.74-2c0-1.17,0.65-2,1.61-2
	c1.08,0,1.52,0.87,1.52,1.9v0.24h-2.62c0,0.81,0.44,1.46,1.26,1.46c0.35,0,0.85-0.14,1.07-0.29V36.37 M58.84,34.31
	c0-0.67-0.27-1.33-0.98-1.33c-0.7,0-1.13,0.7-1.13,1.33H58.84z"/>
<path class="st1" d="M63.87,36.49H63.4v-0.61h-0.01c-0.26,0.49-0.65,0.7-1.19,0.7c-1.05,0-1.58-0.87-1.58-2c0-1.16,0.45-2,1.58-2
	c0.75,0,1.13,0.55,1.19,0.73h0.01v-2.45h0.47V36.49 M62.26,36.18c0.84,0,1.13-0.9,1.13-1.6c0-0.7-0.29-1.6-1.13-1.6
	c-0.9,0-1.13,0.85-1.13,1.6C61.13,35.32,61.36,36.18,62.26,36.18z"/>
<path class="st1" d="M68.16,36.37c-0.33,0.13-0.76,0.21-1.11,0.21c-1.27,0-1.74-0.86-1.74-2c0-1.17,0.65-2,1.61-2
	c1.08,0,1.52,0.87,1.52,1.9v0.24h-2.62c0,0.81,0.43,1.46,1.26,1.46c0.35,0,0.85-0.14,1.07-0.29V36.37 M67.93,34.31
	c0-0.67-0.27-1.33-0.97-1.33c-0.7,0-1.13,0.7-1.13,1.33H67.93z"/>
<path class="st1" d="M69.93,33.52c0-0.42,0-0.58-0.03-0.86h0.47v0.74h0.01c0.17-0.43,0.5-0.83,0.98-0.83c0.11,0,0.25,0.02,0.33,0.05
	v0.49c-0.1-0.03-0.23-0.04-0.35-0.04c-0.75,0-0.95,0.84-0.95,1.53v1.89h-0.47V33.52"/>
<path class="st1" d="M75.22,35.88H75.2c-0.21,0.46-0.74,0.7-1.22,0.7c-1.09,0-1.26-0.74-1.26-1.08c0-1.28,1.37-1.34,2.36-1.34h0.09
	v-0.2c0-0.65-0.23-0.98-0.87-0.98c-0.4,0-0.77,0.09-1.13,0.31v-0.46c0.29-0.14,0.79-0.26,1.13-0.26c0.94,0,1.34,0.43,1.34,1.42v1.69
	c0,0.31,0,0.54,0.04,0.8h-0.47V35.88 M75.17,34.57h-0.13c-0.82,0-1.79,0.08-1.79,0.92c0,0.5,0.36,0.69,0.8,0.69
	c1.11,0,1.13-0.97,1.13-1.38V34.57z"/>
<polyline class="st1" points="77,36.1 79.31,33.07 77.09,33.07 77.09,32.67 79.85,32.67 79.85,33.07 77.55,36.09 79.85,36.09 
	79.85,36.49 77,36.49 77,36.1 "/>
<path class="st1" d="M81.74,31.65h-0.47v-0.63h0.47V31.65 M81.27,32.67h0.47v3.83h-0.47V32.67z"/>
<path class="st1" d="M85.02,32.58c1.24,0,1.79,0.96,1.79,2c0,1.04-0.55,2-1.79,2s-1.79-0.96-1.79-2
	C83.23,33.54,83.78,32.58,85.02,32.58 M85.02,36.18c0.83,0,1.27-0.71,1.27-1.6c0-0.89-0.44-1.6-1.27-1.6c-0.83,0-1.27,0.71-1.27,1.6
	C83.75,35.47,84.19,36.18,85.02,36.18z"/>
<path class="st1" d="M88.28,33.57c0-0.29,0-0.59-0.03-0.9h0.46v0.68h0.01c0.16-0.35,0.44-0.77,1.24-0.77c0.94,0,1.31,0.63,1.31,1.47
	v2.45h-0.47v-2.33c0-0.72-0.25-1.19-0.91-1.19c-0.86,0-1.13,0.76-1.13,1.4v2.12h-0.47V33.57"/>
<path class="st1" d="M95.6,36.37c-0.33,0.13-0.76,0.21-1.11,0.21c-1.27,0-1.74-0.86-1.74-2c0-1.17,0.65-2,1.61-2
	c1.08,0,1.52,0.87,1.52,1.9v0.24h-2.62c0,0.81,0.44,1.46,1.26,1.46c0.35,0,0.85-0.14,1.07-0.29V36.37 M95.37,34.31
	c0-0.67-0.27-1.33-0.97-1.33c-0.7,0-1.13,0.7-1.13,1.33H95.37z"/>
<path class="st1" d="M99.88,35.83c0.31,0.2,0.67,0.31,1.16,0.31c0.64,0,1.18-0.33,1.18-1.07c0-1.03-2.4-1.16-2.4-2.53
	c0-0.84,0.74-1.37,1.66-1.37c0.25,0,0.67,0.04,1.03,0.17l-0.08,0.47c-0.23-0.13-0.6-0.2-0.95-0.2c-0.54,0-1.13,0.23-1.13,0.9
	c0,1.05,2.4,1.06,2.4,2.59c0,1.06-0.91,1.48-1.72,1.48c-0.51,0-0.91-0.1-1.19-0.22L99.88,35.83"/>
<polyline class="st1" points="105.64,36.49 105.08,36.49 103.78,32.67 104.3,32.67 105.36,35.98 105.37,35.98 106.48,32.67 
	106.98,32.67 105.64,36.49 "/>
<path class="st1" d="M108.7,31.65h-0.47v-0.63h0.47V31.65 M108.22,32.67h0.47v3.83h-0.47V32.67z"/>
<polyline class="st1" points="110.12,36.1 112.43,33.07 110.21,33.07 110.21,32.67 112.97,32.67 112.97,33.07 110.67,36.09 
	112.97,36.09 112.97,36.49 110.12,36.49 110.12,36.1 "/>
<polyline class="st1" points="114.04,36.1 116.34,33.07 114.13,33.07 114.13,32.67 116.89,32.67 116.89,33.07 114.59,36.09 
	116.89,36.09 116.89,36.49 114.04,36.49 114.04,36.1 "/>
<path class="st1" d="M120.88,36.37c-0.33,0.13-0.76,0.21-1.11,0.21c-1.27,0-1.74-0.86-1.74-2c0-1.17,0.65-2,1.61-2
	c1.08,0,1.52,0.87,1.52,1.9v0.24h-2.62c0,0.81,0.44,1.46,1.26,1.46c0.35,0,0.85-0.14,1.07-0.29V36.37 M120.64,34.31
	c0-0.67-0.27-1.33-0.97-1.33c-0.7,0-1.13,0.7-1.13,1.33H120.64z"/>
<path class="st1" d="M122.65,33.52c0-0.42,0-0.58-0.03-0.86h0.47v0.74h0.01c0.17-0.43,0.5-0.83,0.98-0.83
	c0.11,0,0.25,0.02,0.33,0.05v0.49c-0.1-0.03-0.22-0.04-0.35-0.04c-0.75,0-0.95,0.84-0.95,1.53v1.89h-0.47V33.52"/>
<path class="st1" d="M127.93,35.88h-0.01c-0.21,0.46-0.74,0.7-1.22,0.7c-1.09,0-1.26-0.74-1.26-1.08c0-1.28,1.37-1.34,2.36-1.34
	h0.09v-0.2c0-0.65-0.23-0.98-0.87-0.98c-0.4,0-0.77,0.09-1.12,0.31v-0.46c0.29-0.14,0.79-0.26,1.12-0.26c0.94,0,1.34,0.43,1.34,1.42
	v1.69c0,0.31,0,0.54,0.04,0.8h-0.47V35.88 M127.89,34.57h-0.14c-0.82,0-1.79,0.08-1.79,0.92c0,0.5,0.36,0.69,0.79,0.69
	c1.11,0,1.13-0.97,1.13-1.38V34.57z"/>
<path class="st1" d="M42.15,42.19c-0.33-0.17-0.8-0.22-1.17-0.22c-1.36,0-2.12,0.96-2.12,2.26c0,1.32,0.74,2.26,2.12,2.26
	c0.34,0,0.87-0.04,1.17-0.22l0.03,0.45c-0.28,0.17-0.87,0.23-1.2,0.23c-1.65,0-2.64-1.09-2.64-2.71c0-1.59,1.02-2.71,2.64-2.71
	c0.31,0,0.93,0.05,1.2,0.19L42.15,42.19"/>
<path class="st1" d="M45.4,42.93c1.24,0,1.79,0.96,1.79,2c0,1.04-0.55,2-1.79,2c-1.24,0-1.78-0.96-1.78-2
	C43.61,43.89,44.16,42.93,45.4,42.93 M45.4,46.53c0.83,0,1.27-0.71,1.27-1.6c0-0.89-0.44-1.6-1.27-1.6c-0.83,0-1.27,0.71-1.27,1.6
	C44.13,45.82,44.57,46.53,45.4,46.53z"/>
<path class="st1" d="M48.66,43.92c0-0.29,0-0.59-0.03-0.9h0.46v0.68h0.02c0.16-0.34,0.44-0.77,1.24-0.77c0.95,0,1.31,0.63,1.31,1.47
	v2.45h-0.47v-2.33c0-0.72-0.26-1.18-0.91-1.18c-0.86,0-1.13,0.76-1.13,1.39v2.12h-0.47V43.92"/>
<path class="st1" d="M53.74,43.42h-0.77v-0.4h0.77v-0.28c0-0.8,0.03-1.61,1.01-1.61c0.15,0,0.35,0.02,0.44,0.08l-0.03,0.41
	c-0.1-0.05-0.24-0.08-0.38-0.08c-0.65,0-0.58,0.7-0.58,1.15v0.33h0.86v0.4h-0.86v3.42h-0.47V43.42"/>
<path class="st1" d="M59.07,46.72c-0.33,0.14-0.76,0.21-1.11,0.21c-1.27,0-1.74-0.86-1.74-2c0-1.17,0.65-2,1.61-2
	c1.08,0,1.52,0.87,1.52,1.9v0.24h-2.62c0,0.81,0.44,1.46,1.26,1.46c0.35,0,0.85-0.14,1.07-0.29V46.72 M58.84,44.66
	c0-0.67-0.27-1.33-0.98-1.33c-0.7,0-1.13,0.7-1.13,1.33H58.84z"/>
<path class="st1" d="M63.87,46.84H63.4v-0.61h-0.01c-0.26,0.49-0.65,0.7-1.19,0.7c-1.05,0-1.58-0.87-1.58-2c0-1.16,0.45-2,1.58-2
	c0.75,0,1.13,0.55,1.19,0.74h0.01v-2.45h0.47V46.84 M62.26,46.53c0.84,0,1.13-0.9,1.13-1.6c0-0.7-0.29-1.6-1.13-1.6
	c-0.9,0-1.13,0.85-1.13,1.6C61.13,45.67,61.36,46.53,62.26,46.53z"/>
<path class="st1" d="M68.16,46.72c-0.33,0.14-0.76,0.21-1.11,0.21c-1.27,0-1.74-0.86-1.74-2c0-1.17,0.65-2,1.61-2
	c1.08,0,1.52,0.87,1.52,1.9v0.24h-2.62c0,0.81,0.43,1.46,1.26,1.46c0.35,0,0.85-0.14,1.07-0.29V46.72 M67.93,44.66
	c0-0.67-0.27-1.33-0.97-1.33c-0.7,0-1.13,0.7-1.13,1.33H67.93z"/>
<path class="st1" d="M69.93,43.87c0-0.42,0-0.58-0.03-0.86h0.47v0.74h0.01c0.17-0.43,0.5-0.83,0.98-0.83c0.11,0,0.25,0.02,0.33,0.05
	v0.5c-0.1-0.03-0.23-0.05-0.35-0.05c-0.75,0-0.95,0.84-0.95,1.53v1.89h-0.47V43.87"/>
<path class="st1" d="M75.22,46.23H75.2c-0.21,0.46-0.74,0.7-1.22,0.7c-1.09,0-1.26-0.74-1.26-1.08c0-1.28,1.37-1.34,2.36-1.34h0.09
	v-0.2c0-0.65-0.23-0.98-0.87-0.98c-0.4,0-0.77,0.09-1.13,0.31v-0.46c0.29-0.14,0.79-0.26,1.13-0.26c0.94,0,1.34,0.43,1.34,1.43v1.69
	c0,0.31,0,0.54,0.04,0.8h-0.47V46.23 M75.17,44.92h-0.13c-0.82,0-1.79,0.08-1.79,0.92c0,0.5,0.36,0.69,0.8,0.69
	c1.11,0,1.13-0.97,1.13-1.38V44.92z"/>
<polyline class="st1" points="77,46.45 79.31,43.42 77.09,43.42 77.09,43.02 79.85,43.02 79.85,43.42 77.55,46.44 79.85,46.44 
	79.85,46.84 77,46.84 77,46.45 "/>
<path class="st1" d="M81.74,42h-0.47v-0.63h0.47V42 M81.27,43.02h0.47v3.83h-0.47V43.02z"/>
<path class="st1" d="M86.51,45.94c0,0.29,0,0.59,0.03,0.9h-0.46v-0.68h-0.01c-0.16,0.34-0.44,0.77-1.24,0.77
	c-0.94,0-1.31-0.63-1.31-1.47v-2.45H84v2.33c0,0.72,0.26,1.19,0.91,1.19c0.86,0,1.13-0.76,1.13-1.4v-2.12h0.47V45.94"/>
<path class="st1" d="M88.28,43.92c0-0.29,0-0.59-0.03-0.9h0.46v0.68h0.01c0.16-0.34,0.44-0.77,1.24-0.77c0.94,0,1.31,0.63,1.31,1.47
	v2.45h-0.47v-2.33c0-0.72-0.25-1.18-0.91-1.18c-0.86,0-1.13,0.76-1.13,1.39v2.12h-0.47V43.92"/>
<path class="st1" d="M95.34,46.29c0.28,0.14,0.63,0.24,1,0.24c0.45,0,0.85-0.25,0.85-0.68c0-0.91-1.84-0.77-1.84-1.88
	c0-0.76,0.61-1.04,1.25-1.04c0.2,0,0.61,0.05,0.94,0.17l-0.04,0.41c-0.25-0.11-0.59-0.18-0.85-0.18c-0.49,0-0.83,0.15-0.83,0.64
	c0,0.71,1.88,0.62,1.88,1.88c0,0.81-0.76,1.09-1.33,1.09c-0.37,0-0.74-0.04-1.07-0.18L95.34,46.29"/>
<polyline class="st1" points="100.47,46.84 99.91,46.84 98.61,43.02 99.13,43.02 100.19,46.33 100.2,46.33 101.31,43.02 
	101.81,43.02 100.47,46.84 "/>
<path class="st1" d="M103.53,42h-0.47v-0.63h0.47V42 M103.06,43.02h0.47v3.83h-0.47V43.02z"/>
<polyline class="st1" points="104.95,46.45 107.26,43.42 105.04,43.42 105.04,43.02 107.81,43.02 107.81,43.42 105.5,46.44 
	107.81,46.44 107.81,46.84 104.95,46.84 104.95,46.45 "/>
<path class="st1" d="M109.22,43.87c0-0.42,0-0.58-0.03-0.86h0.47v0.74h0.01c0.17-0.43,0.5-0.83,0.98-0.83
	c0.11,0,0.25,0.02,0.33,0.05v0.5c-0.1-0.03-0.23-0.05-0.35-0.05c-0.75,0-0.95,0.84-0.95,1.53v1.89h-0.47V43.87"/>
<path class="st1" d="M114.5,46.23h-0.01c-0.21,0.46-0.74,0.7-1.22,0.7c-1.09,0-1.26-0.74-1.26-1.08c0-1.28,1.37-1.34,2.36-1.34h0.09
	v-0.2c0-0.65-0.23-0.98-0.87-0.98c-0.4,0-0.77,0.09-1.13,0.31v-0.46c0.29-0.14,0.79-0.26,1.13-0.26c0.95,0,1.34,0.43,1.34,1.43v1.69
	c0,0.31,0,0.54,0.04,0.8h-0.47V46.23 M114.46,44.92h-0.14c-0.82,0-1.79,0.08-1.79,0.92c0,0.5,0.36,0.69,0.8,0.69
	c1.11,0,1.13-0.97,1.13-1.38V44.92z"/>
<path class="st2" d="M29.82,10.33c0,0-3.97-1.74-10.61-1.74h0c-6.64,0-10.61,1.74-10.61,1.74s-0.36,7.7,1.15,12.05
	c2.66,7.65,9.46,9.8,9.46,9.8h0c0,0,6.8-2.15,9.46-9.8C30.18,18.02,29.82,10.33,29.82,10.33"/>
<polyline class="st3" points="26.26,16.96 26.26,21.2 21.32,21.2 21.32,26.15 17.07,26.15 17.07,21.2 12.13,21.2 12.13,16.96 
	17.07,16.96 17.07,12.01 21.31,12.01 21.32,16.96 26.26,16.96 "/>
</svg>
